[Header]
FileType HTR
DataType HTRS
FileVersion 1
NumSegments 64
NumFrames 4
DataFrameRate 30
EulerRotationOrder ZYX
CalibrationUnits mm
RotationUnits Degrees
GlobalAxisofGravity Y
BoneLengthAxis Y
ScaleFactor 1.0
[SegmentNames&Hierarchy]
Hips	GLOBAL
Spine	Hips
Spine1	Spine
Spine2	Spine1
Neck	Spine2
Head	Neck
LeftEye	Head
RightEye	Head
LeftShoulder	Spine2
LeftArm	LeftShoulder
LeftForeArm	LeftArm
LeftHand	LeftForeArm
LeftHandThumb1	LeftHand
LeftHandThumb2	LeftHandThumb1
LeftHandThumb3	LeftHandThumb2
LeftHandThumb4	LeftHandThumb3
LeftHandIndex1	LeftHand
LeftHandIndex2	LeftHandIndex1
LeftHandIndex3	LeftHandIndex2
LeftHandIndex4	LeftHandIndex3
LeftHandMiddle1	LeftHand
LeftHandMiddle2	LeftHandMiddle1
LeftHandMiddle3	LeftHandMiddle2
LeftHandMiddle4	LeftHandMiddle3
LeftHandRing1	LeftHand
LeftHandRing2	LeftHandRing1
LeftHandRing3	LeftHandRing2
LeftHandRing4	LeftHandRing3
LeftHandPinky1	LeftHand
LeftHandPinky2	LeftHandPinky1
LeftHandPinky3	LeftHandPinky2
LeftHandPinky4	LeftHandPinky3
RightShoulder	Spine2
RightArm	RightShoulder
RightForeArm	RightArm
RightHand	RightForeArm
RightHandPinky1	RightHand
RightHandPinky2	RightHandPinky1
RightHandPinky3	RightHandPinky2
RightHandPinky4	RightHandPinky3
RightHandRing1	RightHand
RightHandRing2	RightHandRing1
RightHandRing3	RightHandRing2
RightHandRing4	RightHandRing3
RightHandMiddle1	RightHand
RightHandMiddle2	RightHandMiddle1
RightHandMiddle3	RightHandMiddle2
RightHandMiddle4	RightHandMiddle3
RightHandIndex1	RightHand
RightHandIndex2	RightHandIndex1
RightHandIndex3	RightHandIndex2
RightHandIndex4	RightHandIndex3
RightHandThumb1	RightHand
RightHandThumb2	RightHandThumb1
RightHandThumb3	RightHandThumb2
RightHandThumb4	RightHandThumb3
LeftUpLeg	Hips
LeftLeg	LeftUpLeg
LeftFoot	LeftLeg
LeftToeBase	LeftFoot
RightUpLeg	Hips
RightLeg	RightUpLeg
RightFoot	RightLeg
RightToeBase	RightFoot
[BasePosition]
Hips	0	0	0	0	0	0	1
Spine	0	0	0	0	0	0	1
Spine1	0	0	0	0	0	0	1
Spine2	0	0	0	0	0	0	1
Neck	0	0	0	0	0	0	1
Head	0	0	0	0	0	0	1
LeftEye	0	0	0	0	0	0	1
RightEye	0	0	0	0	0	0	1
LeftShoulder	0	0	0	0	0	0	1
LeftArm	0	0	0	0	0	0	1
LeftForeArm	0	0	0	0	0	0	1
LeftHand	0	0	0	0	0	0	1
LeftHandThumb1	0	0	0	0	0	0	1
LeftHandThumb2	0	0	0	0	0	0	1
LeftHandThumb3	0	0	0	0	0	0	1
LeftHandThumb4	0	0	0	0	0	0	1
LeftHandIndex1	0	0	0	0	0	0	1
LeftHandIndex2	0	0	0	0	0	0	1
LeftHandIndex3	0	0	0	0	0	0	1
LeftHandIndex4	0	0	0	0	0	0	1
LeftHandMiddle1	0	0	0	0	0	0	1
LeftHandMiddle2	0	0	0	0	0	0	1
LeftHandMiddle3	0	0	0	0	0	0	1
LeftHandMiddle4	0	0	0	0	0	0	1
LeftHandRing1	0	0	0	0	0	0	1
LeftHandRing2	0	0	0	0	0	0	1
LeftHandRing3	0	0	0	0	0	0	1
LeftHandRing4	0	0	0	0	0	0	1
LeftHandPinky1	0	0	0	0	0	0	1
LeftHandPinky2	0	0	0	0	0	0	1
LeftHandPinky3	0	0	0	0	0	0	1
LeftHandPinky4	0	0	0	0	0	0	1
RightShoulder	0	0	0	0	0	0	1
RightArm	0	0	0	0	0	0	1
RightForeArm	0	0	0	0	0	0	1
RightHand	0	0	0	0	0	0	1
RightHandPinky1	0	0	0	0	0	0	1
RightHandPinky2	0	0	0	0	0	0	1
RightHandPinky3	0	0	0	0	0	0	1
RightHandPinky4	0	0	0	0	0	0	1
RightHandRing1	0	0	0	0	0	0	1
RightHandRing2	0	0	0	0	0	0	1
RightHandRing3	0	0	0	0	0	0	1
RightHandRing4	0	0	0	0	0	0	1
RightHandMiddle1	0	0	0	0	0	0	1
RightHandMiddle2	0	0	0	0	0	0	1
RightHandMiddle3	0	0	0	0	0	0	1
RightHandMiddle4	0	0	0	0	0	0	1
RightHandIndex1	0	0	0	0	0	0	1
RightHandIndex2	0	0	0	0	0	0	1
RightHandIndex3	0	0	0	0	0	0	1
RightHandIndex4	0	0	0	0	0	0	1
RightHandThumb1	0	0	0	0	0	0	1
RightHandThumb2	0	0	0	0	0	0	1
RightHandThumb3	0	0	0	0	0	0	1
RightHandThumb4	0	0	0	0	0	0	1
LeftUpLeg	0	0	0	0	0	0	1
LeftLeg	0	0	0	0	0	0	1
LeftFoot	0	0	0	0	0	0	1
LeftToeBase	0	0	0	0	0	0	1
RightUpLeg	0	0	0	0	0	0	1
RightLeg	0	0	0	0	0	0	1
RightFoot	0	0	0	0	0	0	1
RightToeBase	0	0	0	0	0	0	1
[Hips]
50	12.47047997	983.4885254	-24.3250618	7.487407684	9.547449112	-6.780103207	1.0
51	13.18146229	996.8468018	-22.73630142	6.05685091	7.506872654	-6.361902714	1.0
52	12.92881775	1004.198853	-21.44699478	4.541340828	6.671132088	-6.094410419	1.0
53	13.0656662	1008.52124	-20.3279705	3.183415174	5.733762264	-5.893440247	1.0
[Spine]
50	0	101.8159943	1.315000057	5.293320656	5.05105114	2.234294176	1.0
51	0	101.8159943	1.315000057	4.729207993	4.944373131	2.09931612	1.0
52	0	101.8159943	1.315000057	4.253144741	4.29131937	2.132244587	1.0
53	0	101.8159943	1.315000057	3.955466986	3.683268547	2.294074297	1.0
[Spine1]
50	0	100.8349991	-10.00800037	1.796256423	1.07405448	1.370193481	1.0
51	0	100.8349991	-10.00800037	1.597064376	1.091200113	1.356981874	1.0
52	0	100.8349991	-10.00800037	1.43309176	0.9363353848	1.374418616	1.0
53	0	100.8349991	-10.00800037	1.324123144	0.7868946791	1.420518279	1.0
[Spine2]
50	0	91	-13.73399925	1.756533742	1.113116145	1.388799429	1.0
51	0	91	-13.73399925	1.558411717	1.128691077	1.371196628	1.0
52	0	91	-13.73399925	1.396172762	0.9731518626	1.385953784	1.0
53	0	91	-13.73399925	1.288872004	0.8230978251	1.430266857	1.0
[Neck]
50	0	166.7169952	-25.16200066	5.293624401	-2.757510185	-0.524892509	1.0
51	0	166.7169952	-25.16200066	5.947071552	-2.696540117	0.0366140306	1.0
52	0	166.7169952	-25.16200066	6.324496746	-2.521210194	0.3400254846	1.0
53	0	166.7169952	-25.16200066	6.399186611	-2.256926537	0.3716609776	1.0
[Head]
50	0	96.17900085	16.84999847	-15.81270981	-13.75773335	11.72564125	1.0
51	0	96.17900085	16.84999847	-13.83128357	-12.76644421	10.24649239	1.0
52	0	96.17900085	16.84999847	-12.13788605	-11.70047665	9.342808723	1.0
53	0	96.17900085	16.84999847	-10.75192165	-10.51383686	8.532893181	1.0
[LeftEye]
50	30.6760006	64.09500122	92.83599854	0	0	0	1.0
51	30.6760006	64.09500122	92.83599854	0	0	0	1.0
52	30.6760006	64.09500122	92.83599854	0	0	0	1.0
53	30.6760006	64.09500122	92.83599854	0	0	0	1.0
[RightEye]
50	-30.6760006	64.09500122	92.83499908	0	0	0	1.0
51	-30.6760006	64.09500122	92.83499908	0	0	0	1.0
52	-30.6760006	64.09500122	92.83499908	0	0	0	1.0
53	-30.6760006	64.09500122	92.83499908	0	0	0	1.0
[LeftShoulder]
50	45.70400238	109.4599991	-26.28000069	5.117078781	-16.39292336	-14.06334782	1.0
51	45.70400238	109.4599991	-26.28000069	4.951386452	-16.26339149	-13.19771385	1.0
52	45.70400238	109.4599991	-26.28000069	4.879784584	-16.78100586	-12.64871693	1.0
53	45.70400238	109.4599991	-26.28000069	4.906197071	-17.38900185	-12.6162138	1.0
[LeftArm]
50	105.923996	-5.24600029	-22.32099915	27.07415771	-20.77773476	-58.63809967	1.0
51	105.923996	-5.24600029	-22.32099915	30.34313393	-17.61653709	-60.30482483	1.0
52	105.923996	-5.24600029	-22.32099915	30.43703461	-12.88417339	-62.28646469	1.0
53	105.923996	-5.24600029	-22.32099915	28.59471893	-8.375863075	-63.98094559	1.0
[LeftForeArm]
50	278.414978	-0.0009999999311	0	-1.943296638e-06	-25.20256042	-0.0002137527626	1.0
51	278.414978	-0.0009999999311	0	1.677981686e-06	-26.39853477	-0.0002210343227	1.0
52	278.414978	-0.0009999999311	0	2.545790039e-06	-26.82074928	-0.0002241513139	1.0
53	278.414978	-0.0009999999311	0	3.5739738e-06	-26.16835594	-0.0002211406827	1.0
[LeftHand]
50	283.2879944	0	0	-47.31335449	-13.47269249	-7.200634956	1.0
51	283.2879944	0	0	-38.54267883	-14.41822624	-9.14363575	1.0
52	283.2879944	0	0	-33.14134979	-12.21421146	-7.533255577	1.0
53	283.2879944	0	0	-31.86472511	-9.472434044	-4.017491817	1.0
[LeftHandThumb1]
50	24.6609993	-15.75	26.8239994	-0.4899413288	2.198930264	4.817723274	1.0
51	24.6609993	-15.75	26.8239994	-0.4886224568	2.202336788	4.818876743	1.0
52	24.6609993	-15.75	26.8239994	-0.4886701405	2.202202082	4.81881237	1.0
53	24.6609993	-15.75	26.8239994	-0.4889795482	2.201409578	4.818540096	1.0
[LeftHandThumb2]
50	32.29800034	-18.64699936	18.64699936	18.51131248	26.90574074	22.37491989	1.0
51	32.29800034	-18.64699936	18.64699936	15.78690815	25.15490913	21.55267143	1.0
52	32.29800034	-18.64699936	18.64699936	13.84979057	23.98682594	21.59002495	1.0
53	32.29800034	-18.64699936	18.64699936	13.68517113	23.32617378	21.93514442	1.0
[LeftHandThumb3]
50	26.52600098	-15.31499958	15.31499958	-13.00411892	6.614336491	8.304467201	1.0
51	26.52600098	-15.31499958	15.31499958	-12.80540657	7.630455017	8.0520401	1.0
52	26.52600098	-15.31499958	15.31499958	-12.68936157	8.281685829	8.016368866	1.0
53	26.52600098	-15.31499958	15.31499958	-12.69873238	8.247048378	8.045152664	1.0
[LeftHandThumb4]
50	19.54599953	-11.28499985	11.28499985	0	0	0	1.0
51	19.54599953	-11.28499985	11.28499985	0	0	0	1.0
52	19.54599953	-11.28499985	11.28499985	0	0	0	1.0
53	19.54599953	-11.28499985	11.28499985	0	0	0	1.0
[LeftHandIndex1]
50	91.09299469	-5.170999527	22.60099792	0.4732424021	1.344513893	-13.46364784	1.0
51	91.09299469	-5.170999527	22.60099792	0.2212854624	0.09035474062	-11.08425903	1.0
52	91.09299469	-5.170999527	22.60099792	-0.0239380002	-1.05612886	-9.060648918	1.0
53	91.09299469	-5.170999527	22.60099792	-0.1682654172	-1.623904705	-8.29685688	1.0
[LeftHandIndex2]
50	36.76399994	0	0	-0.2695050538	1.754089832	-17.46817398	1.0
51	36.76399994	0	0	-0.2674212456	1.747448206	-17.39988136	1.0
52	36.76399994	0	0	-0.2657344639	1.742097855	-17.344841	1.0
53	36.76399994	0	0	-0.2649828792	1.739662647	-17.31982803	1.0
[LeftHandIndex3]
50	28.83100128	0	0	-0.05874284729	0.8265880942	-8.130004883	1.0
51	28.83100128	0	0	-0.05776245892	0.8196991682	-8.061772346	1.0
52	28.83100128	0	0	-0.0569797866	0.814144969	-8.006784439	1.0
53	28.83100128	0	0	-0.05661747605	0.8116226792	-7.981771469	1.0
[LeftHandIndex4]
50	23.92700005	0	0	0	0	0	1.0
51	23.92700005	0	0	0	0	0	1.0
52	23.92700005	0	0	0	0	0	1.0
53	23.92700005	0	0	0	0	0	1.0
[LeftHandMiddle1]
50	95.33399963	0	0	-0.9303824902	2.20401597	-17.7071228	1.0
51	95.33399963	0	0	-0.8893082738	2.167572021	-17.11989784	1.0
52	95.33399963	0	0	-0.862624824	2.300486326	-16.72877502	1.0
53	95.33399963	0	0	-0.8669960499	2.580190897	-16.78338242	1.0
[LeftHandMiddle2]
50	36.98199844	0	0	-0.26297158	1.733210921	-17.25351334	1.0
51	36.98199844	0	0	-0.264613837	1.738486528	-17.30779266	1.0
52	36.98199844	0	0	-0.2654218376	1.741087675	-17.33450699	1.0
53	36.98199844	0	0	-0.2659850121	1.742879987	-17.35291481	1.0
[LeftHandMiddle3]
50	29.50900078	0	0	-0.294414103	1.831326962	-18.26442909	1.0
51	29.50900078	0	0	-0.2961470485	1.836579204	-18.3186264	1.0
52	29.50900078	0	0	-0.2969706953	1.839053988	-18.34424019	1.0
53	29.50900078	0	0	-0.2975107133	1.840690732	-18.36115456	1.0
[LeftHandMiddle4]
50	28.3390007	0	0	0	0	0	1.0
51	28.3390007	0	0	0	0	0	1.0
52	28.3390007	0	0	0	0	0	1.0
53	28.3390007	0	0	0	0	0	1.0
[LeftHandRing1]
50	91.04499817	-0.4390000105	-18.65100098	-1.311311364	2.902336597	-22.82879448	1.0
51	91.04499817	-0.4390000105	-18.65100098	-1.294811249	2.631767988	-22.62409973	1.0
52	91.04499817	-0.4390000105	-18.65100098	-1.229828954	2.620859623	-21.77634621	1.0
53	91.04499817	-0.4390000105	-18.65100098	-1.184524894	2.729585171	-21.17691612	1.0
[LeftHandRing2]
50	31.54000092	0	0	-0.3910595477	2.101526976	-21.0806179	1.0
51	31.54000092	0	0	-0.3892756104	2.096873045	-21.03172112	1.0
52	31.54000092	0	0	-0.3901087642	2.099055767	-21.05463409	1.0
53	31.54000092	0	0	-0.3912215233	2.101924181	-21.08481407	1.0
[LeftHandRing3]
50	29.37700081	0	0	-0.2872105241	1.809368253	-18.03760529	1.0
51	29.37700081	0	0	-0.2857195437	1.804780602	-17.99033546	1.0
52	29.37700081	0	0	-0.2864258289	1.80696702	-18.0128746	1.0
53	29.37700081	0	0	-0.2873418033	1.809787869	-18.04196167	1.0
[LeftHandRing4]
50	26.47500038	0	0	0	0	0	1.0
51	26.47500038	0	0	0	0	0	1.0
52	26.47500038	0	0	0	0	0	1.0
53	26.47500038	0	0	0	0	0	1.0
[LeftHandPinky1]
50	80.77799988	-4.887000084	-38.06099701	-1.969865322	2.813435555	-29.15353203	1.0
51	80.77799988	-4.887000084	-38.06099701	-1.893032789	2.976994038	-28.53202248	1.0
52	80.77799988	-4.887000084	-38.06099701	-1.802020907	3.390081644	-27.88178635	1.0
53	80.77799988	-4.887000084	-38.06099701	-1.743264556	3.830150127	-27.46993446	1.0
[LeftHandPinky2]
50	36	0	0	-0.2739727199	1.7682302	-17.61366844	1.0
51	36	0	0	-0.272762537	1.764414549	-17.57441902	1.0
52	36	0	0	-0.2733395994	1.766266704	-17.59339714	1.0
53	36	0	0	-0.2738407254	1.767824054	-17.60946846	1.0
[LeftHandPinky3]
50	21.14200211	0	0	-0.2468508482	1.680454016	-16.71229935	1.0
51	21.14200211	0	0	-0.2457097918	1.676665187	-16.67354965	1.0
52	21.14200211	0	0	-0.2462895364	1.67857039	-16.69309998	1.0
53	21.14200211	0	0	-0.2467701286	1.68016696	-16.70944214	1.0
[LeftHandPinky4]
50	19.75699997	0	0	0	0	0	1.0
51	19.75699997	0	0	0	0	0	1.0
52	19.75699997	0	0	0	0	0	1.0
53	19.75699997	0	0	0	0	0	1.0
[RightShoulder]
50	-45.70000076	109.4620056	-26.28000069	5.418296814	16.76523972	14.63835144	1.0
51	-45.70000076	109.4620056	-26.28000069	5.283473492	16.84890938	13.93236637	1.0
52	-45.70000076	109.4620056	-26.28000069	5.221380234	16.32859802	13.87973881	1.0
53	-45.70000076	109.4620056	-26.28000069	5.241274834	15.83420277	14.25358295	1.0
[RightArm]
50	-105.9280014	-5.248000145	-22.32099915	44.82401657	29.40633202	51.4086113	1.0
51	-105.9280014	-5.248000145	-22.32099915	49.38193893	27.79419899	52.81320953	1.0
52	-105.9280014	-5.248000145	-22.32099915	51.38666534	26.47309494	53.57772064	1.0
53	-105.9280014	-5.248000145	-22.32099915	52.2238121	25.00266457	53.78699112	1.0
[RightForeArm]
50	-278.414978	0	0	1.50162814e-05	53.00791168	5.923287517e-06	1.0
51	-278.414978	0	0	-1.204773798e-05	57.38146591	-3.090351811e-06	1.0
52	-278.414978	0	0	-1.607964077e-05	60.11412811	-2.525077207e-06	1.0
53	-278.414978	0	0	-5.885918199e-06	61.15032196	7.834731832e-07	1.0
[RightHand]
50	-283.2879944	0	0.0009999999311	-3.54004693	13.16693306	13.35018349	1.0
51	-283.2879944	0	0.0009999999311	-4.878691196	15.82770634	15.54715538	1.0
52	-283.2879944	0	0.0009999999311	-7.425349236	19.15966225	17.30354691	1.0
53	-283.2879944	0	0.0009999999311	-9.215745926	22.55237198	17.85792923	1.0
[RightHandPinky1]
50	-80.76699829	-4.885000229	-38.06000137	-2.222862482	-5.444862843	34.88979721	1.0
51	-80.76699829	-4.885000229	-38.06000137	-2.663765907	-5.493926048	38.82411575	1.0
52	-80.76699829	-4.885000229	-38.06000137	-3.135038376	-5.647577286	43.01937866	1.0
53	-80.76699829	-4.885000229	-38.06000137	-3.611959219	-5.99414587	46.77127457	1.0
[RightHandPinky2]
50	-36	0	0.0009999999311	-0.3635596335	-1.79980588	22.84894562	1.0
51	-36	0	0.0009999999311	-0.5095357299	-2.113456726	27.1255722	1.0
52	-36	0	0.0009999999311	-0.6903108954	-2.43393445	31.67493629	1.0
53	-36	0	0.0009999999311	-0.8942258358	-2.736172438	36.18696213	1.0
[RightHandPinky3]
50	-21.14200211	0	0	-0.3363420963	-1.733786821	21.94676781	1.0
51	-21.14200211	0	0	-0.4773984253	-2.049572468	26.22183609	1.0
52	-21.14200211	0	0	-0.6532356143	-2.372805834	30.77137947	1.0
53	-21.14200211	0	0	-0.8525187969	-2.67825985	35.28448486	1.0
[RightHandPinky4]
50	-19.75699997	0	0	0	0	0	1.0
51	-19.75699997	0	0	0	0	0	1.0
52	-19.75699997	0	0	0	0	0	1.0
53	-19.75699997	0	0	0	0	0	1.0
[RightHandRing1]
50	-91.03599548	-0.4390000105	-18.65100098	-1.424517155	-2.405701637	25.99489975	1.0
51	-91.03599548	-0.4390000105	-18.65100098	-1.814915061	-2.360274315	31.2883091	1.0
52	-91.03599548	-0.4390000105	-18.65100098	-2.224089622	-2.351178885	36.49610901	1.0
53	-91.03599548	-0.4390000105	-18.65100098	-2.580321789	-2.582416058	40.84236908	1.0
[RightHandRing2]
50	-31.54000092	0	0	-0.5290971398	-2.150806665	27.62742805	1.0
51	-31.54000092	0	0	-0.7011730075	-2.451813698	31.91482544	1.0
52	-31.54000092	0	0	-0.9049624801	-2.751398325	36.39666748	1.0
53	-31.54000092	0	0	-1.122606039	-3.023858786	40.71339798	1.0
[RightHandRing3]
50	-29.37700081	0	0	-0.42036134	-1.928959012	24.57309914	1.0
51	-29.37700081	0	0	-0.5759575367	-2.238449812	28.85569572	1.0
52	-29.37700081	0	0	-0.7631800771	-2.548091173	33.3303833	1.0
53	-29.37700081	0	0	-0.9656968713	-2.831567287	37.64208221	1.0
[RightHandRing4]
50	-26.47500038	0	0	0	0	0	1.0
51	-26.47500038	0	0	0	0	0	1.0
52	-26.47500038	0	0	0	0	0	1.0
53	-26.47500038	0	0	0	0	0	1.0
[RightHandMiddle1]
50	-95.32500458	0	0	-1.221815586	-0.6396353841	23.16671562	1.0
51	-95.32500458	0	0	-1.56618762	-0.6980771422	28.02274132	1.0
52	-95.32500458	0	0	-1.928474665	-0.8697442412	32.80491638	1.0
53	-95.32500458	0	0	-2.230673075	-1.239209652	36.61482239	1.0
[RightHandMiddle2]
50	-36.98199844	0	0	-0.4436674118	-1.978908181	25.25390434	1.0
51	-36.98199844	0	0	-0.58110708	-2.247741938	28.98707581	1.0
52	-36.98199844	0	0	-0.7576155663	-2.53970623	33.20597076	1.0
53	-36.98199844	0	0	-0.9551708102	-2.817739964	37.42695236	1.0
[RightHandMiddle3]
50	-29.50900078	0	0	-0.4794900417	-2.055051327	26.2716198	1.0
51	-29.50900078	0	0	-0.6212439537	-2.320681095	29.99437714	1.0
52	-29.50900078	0	0	-0.8022221327	-2.608581543	34.19988251	1.0
53	-29.50900078	0	0	-1.004088044	-2.882497549	38.411129	1.0
[RightHandMiddle4]
50	-28.3390007	0	0.0009999999311	0	0	0	1.0
51	-28.3390007	0	0.0009999999311	0	0	0	1.0
52	-28.3390007	0	0.0009999999311	0	0	0	1.0
53	-28.3390007	0	0.0009999999311	0	0	0	1.0
[RightHandIndex1]
50	-91.08300018	-5.167999744	22.60099792	-0.05132560432	1.57660675	7.62135601	1.0
51	-91.08300018	-5.167999744	22.60099792	0.03726394102	0.9675782323	11.66964054	1.0
52	-91.08300018	-5.167999744	22.60099792	0.08679161221	0.4826551676	16.89001083	1.0
53	-91.08300018	-5.167999744	22.60099792	0.1554499567	0.09516687691	21.64160347	1.0
[RightHandIndex2]
50	-36.76399994	0	0	-0.3927491307	-1.867334843	23.73828506	1.0
51	-36.76399994	0	0	-0.5296605825	-2.152369738	27.64736748	1.0
52	-36.76399994	0	0	-0.7035474777	-2.455261469	31.96573448	1.0
53	-36.76399994	0	0	-0.9005276561	-2.744993925	36.30120087	1.0
[RightHandIndex3]
50	-28.83100128	0	0	-0.1444421411	-1.14760685	14.32066154	1.0
51	-28.83100128	0	0	-0.2323805839	-1.449854612	18.20985985	1.0
52	-28.83100128	0	0	-0.3539978564	-1.776910305	22.52125931	1.0
53	-28.83100128	0	0	-0.5009425282	-2.095569134	26.86062241	1.0
[RightHandIndex4]
50	-23.92700005	0	0	0	0	0	1.0
51	-23.92700005	0	0	0	0	0	1.0
52	-23.92700005	0	0	0	0	0	1.0
53	-23.92700005	0	0	0	0	0	1.0
[RightHandThumb1]
50	-24.64799881	-15.72700024	26.82600021	-1.65499413	-0.2992326021	-4.224600315	1.0
51	-24.64799881	-15.72700024	26.82600021	-1.660778403	-0.2824800313	-4.219164848	1.0
52	-24.64799881	-15.72700024	26.82600021	-1.659678698	-0.2856367528	-4.220187664	1.0
53	-24.64799881	-15.72700024	26.82600021	-1.65818584	-0.2899604142	-4.221587658	1.0
[RightHandThumb2]
50	-32.29800034	-18.64699936	18.64699936	18.59201813	-13.05502319	-27.7674408	1.0
51	-32.29800034	-18.64699936	18.64699936	18.59111977	-13.04337025	-27.77519798	1.0
52	-32.29800034	-18.64699936	18.64699936	18.60241699	-13.15102291	-27.58690834	1.0
53	-32.29800034	-18.64699936	18.64699936	18.57751846	-13.23767185	-27.21080017	1.0
[RightHandThumb3]
50	-26.52600098	-15.31399918	15.31399918	-14.8707819	-6.825797558	-16.51531982	1.0
51	-26.52600098	-15.31399918	15.31399918	-14.83851147	-6.794015408	-16.00156975	1.0
52	-26.52600098	-15.31399918	15.31399918	-14.75609398	-6.900238514	-15.54953289	1.0
53	-26.52600098	-15.31399918	15.31399918	-14.70681572	-6.889986038	-14.92450809	1.0
[RightHandThumb4]
50	-19.54599953	-11.28499985	11.28499985	0	0	0	1.0
51	-19.54599953	-11.28499985	11.28499985	0	0	0	1.0
52	-19.54599953	-11.28499985	11.28499985	0	0	0	1.0
53	-19.54599953	-11.28499985	11.28499985	0	0	0	1.0
[LeftUpLeg]
50	82.07800293	-67.51699829	-15.99599934	-38.73875427	13.27010059	5.834297657	1.0
51	82.07800293	-67.51699829	-15.99599934	-33.8564949	13.48728275	5.960742474	1.0
52	82.07800293	-67.51699829	-15.99599934	-30.34729576	12.99016666	6.117382526	1.0
53	82.07800293	-67.51699829	-15.99599934	-27.65363884	12.78313923	6.278180122	1.0
[LeftLeg]
50	0	-443.7049866	2.845999956	35.25037384	-8.180763245	-3.415608406	1.0
51	0	-443.7049866	2.845999956	30.24517632	-7.201586246	-1.586411119	1.0
52	0	-443.7049866	2.845999956	27.3151989	-6.523813248	-0.2337423563	1.0
53	0	-443.7049866	2.845999956	25.61542511	-5.810339928	0.7425982356	1.0
[LeftFoot]
50	0	-444.2789917	-29.8219986	-4.943428516	0.6518714428	-2.197380781	1.0
51	0	-444.2789917	-29.8219986	-3.193146944	0.6524585485	-2.997230768	1.0
52	0	-444.2789917	-29.8219986	-2.180338144	0.6929658055	-3.68331933	1.0
53	0	-444.2789917	-29.8219986	-1.696025729	0.6884684563	-4.15949297	1.0
[LeftToeBase]
50	0	-87.28699493	107.1060028	-4.928525448	4.926363999e-06	-2.334701776e-06	1.0
51	0	-87.28699493	107.1060028	-4.928525448	4.955211352e-06	-1.197651841e-06	1.0
52	0	-87.28699493	107.1060028	-4.928524494	-1.827882329e-06	-7.10047118e-07	1.0
53	0	-87.28699493	107.1060028	-4.928525448	2.538317403e-06	-1.17946513e-06	1.0
[RightUpLeg]
50	-82.07800293	-67.51699829	-15.99599934	-26.34410667	-13.41769505	6.243492126	1.0
51	-82.07800293	-67.51699829	-15.99599934	-22.18788338	-12.32032871	5.91099596	1.0
52	-82.07800293	-67.51699829	-15.99599934	-19.08440018	-11.33685589	5.92637682	1.0
53	-82.07800293	-67.51699829	-15.99599934	-16.72031212	-10.6002636	5.936926365	1.0
[RightLeg]
50	0	-443.7049866	2.861999989	33.80429077	-10.20157719	-2.528266668	1.0
51	0	-443.7049866	2.861999989	28.46709442	-9.761376381	-2.728901625	1.0
52	0	-443.7049866	2.861999989	25.41074181	-9.299233437	-3.500942707	1.0
53	0	-443.7049866	2.861999989	23.56347847	-8.958639145	-4.257638454	1.0
[RightFoot]
50	0	-444.2770081	-29.83799934	-15.33454895	-10.90026474	4.661356926	1.0
51	0	-444.2770081	-29.83799934	-12.52770138	-10.61533165	4.223767757	1.0
52	0	-444.2770081	-29.83799934	-11.03724575	-11.16539764	4.469695568	1.0
53	0	-444.2770081	-29.83799934	-10.11221218	-11.25261784	4.740224361	1.0
[RightToeBase]
50	0	-87.28699493	107.1060028	-7.282876492	5.369047813e-06	1.384848815e-06	1.0
51	0	-87.28699493	107.1060028	-7.282870293	-4.556812655e-06	-1.055315806e-06	1.0
52	0	-87.28699493	107.1060028	-7.282873631	-1.493364016e-05	-8.289231914e-07	1.0
53	0	-87.28699493	107.1060028	-7.282875538	-6.084156212e-06	7.831425108e-08	1.0
[EndOfFile]
